<?xml version="1.0" encoding="UTF-8" standalone="no"?>
<!-- Generator: Adobe Illustrator 25.4.1, SVG Export Plug-In . SVG Version: 6.00 Build 0)  -->

<svg
   version="1.1"
   x="0px"
   y="0px"
   viewBox="0 0 451.57104 943.84581"
   xml:space="preserve"
   id="svg7"
   sodipodi:docname="transparent-logo-colored.svg"
   inkscape:version="1.3.1 (91b66b0783, 2023-11-16)"
   width="451.57104"
   height="943.84583"
   xmlns:inkscape="http://www.inkscape.org/namespaces/inkscape"
   xmlns:sodipodi="http://sodipodi.sourceforge.net/DTD/sodipodi-0.dtd"
   xmlns="http://www.w3.org/2000/svg"
   xmlns:svg="http://www.w3.org/2000/svg"><defs
   id="defs7" /><sodipodi:namedview
   id="namedview7"
   pagecolor="#ffffff"
   bordercolor="#666666"
   borderopacity="1.0"
   inkscape:showpageshadow="2"
   inkscape:pageopacity="0.0"
   inkscape:pagecheckerboard="0"
   inkscape:deskcolor="#d1d1d1"
   inkscape:zoom="0.78325032"
   inkscape:cx="-128.31147"
   inkscape:cy="539.41887"
   inkscape:window-width="2560"
   inkscape:window-height="1494"
   inkscape:window-x="-11"
   inkscape:window-y="-11"
   inkscape:window-maximized="1"
   inkscape:current-layer="svg7" />
<style
   type="text/css"
   id="style1">
	.st0{display:none;}
	.st1{display:inline;}
	.st2{fill:none;stroke:#000000;stroke-width:15;stroke-miterlimit:10;}
	.st3{fill:#00C6D7;stroke:#000000;stroke-width:15;stroke-miterlimit:10;}
	.st4{fill:#00C6D7;}
</style>

<g
   id="Logo"
   transform="translate(-24.089471,-24.084177)">
	<path
   class="st4"
   d="m 306.86,81.08 c 0,-31.75 -25.97,-57.44 -57.82,-56.99 -30.22,0.43 -55.15,24.87 -56.13,55.08 -0.89,27.24 17.35,50.37 42.32,56.99 1.49,0.39 2.52,1.74 2.52,3.28 v 53.31 c 0,1.54 -1.03,2.88 -2.51,3.28 -24.38,6.46 -42.36,28.67 -42.36,55.08 0,26.42 17.98,48.62 42.36,55.08 1.48,0.39 2.51,1.74 2.51,3.28 v 53.31 c 0,1.54 -1.03,2.88 -2.51,3.28 -24.38,6.46 -42.36,28.67 -42.36,55.08 0,26.42 17.98,48.62 42.36,55.08 1.48,0.39 2.51,1.74 2.51,3.28 v 53.31 c 0,1.54 -1.03,2.88 -2.51,3.28 -24.38,6.46 -42.36,28.67 -42.36,55.08 0,26.42 17.98,48.62 42.36,55.08 1.48,0.39 2.51,1.74 2.51,3.28 v 53.31 c 0,1.54 -1.04,2.88 -2.52,3.28 -24.96,6.62 -43.2,29.74 -42.32,56.99 0.99,30.21 25.91,54.65 56.13,55.08 31.86,0.45 57.82,-25.23 57.82,-56.99 0,-26.42 -17.98,-48.62 -42.36,-55.08 -1.48,-0.39 -2.51,-1.74 -2.51,-3.28 v -53.31 c 0,-1.54 1.03,-2.88 2.51,-3.28 24.38,-6.46 42.36,-28.67 42.36,-55.08 0,-26.42 -17.98,-48.62 -42.36,-55.08 -1.48,-0.39 -2.51,-1.74 -2.51,-3.28 V 479.5 c 0,-1.54 1.03,-2.88 2.51,-3.28 24.38,-6.46 42.36,-28.67 42.36,-55.08 0,-26.42 -17.98,-48.62 -42.36,-55.08 -1.48,-0.39 -2.51,-1.74 -2.51,-3.28 v -53.31 c 0,-1.54 1.03,-2.88 2.51,-3.28 24.38,-6.46 42.36,-28.67 42.36,-55.08 0,-26.42 -17.98,-48.62 -42.36,-55.08 -1.48,-0.39 -2.51,-1.74 -2.51,-3.28 v -53.31 c 0,-1.54 1.03,-2.88 2.51,-3.28 24.39,-6.45 42.36,-28.66 42.36,-55.08 z m -19.32,340.05 c 0,20.81 -16.87,37.67 -37.67,37.67 -20.81,0 -37.67,-16.87 -37.67,-37.67 0,-20.81 16.87,-37.67 37.67,-37.67 20.81,0 37.67,16.87 37.67,37.67 z m 0,-170.02 c 0,20.81 -16.87,37.67 -37.67,37.67 -20.81,0 -37.67,-16.87 -37.67,-37.67 0,-20.81 16.87,-37.67 37.67,-37.67 20.81,0 37.67,16.86 37.67,37.67 z m 188.12,85.01 c 0,-26.42 -17.98,-48.62 -42.36,-55.08 -1.48,-0.39 -2.51,-1.74 -2.51,-3.28 v -53.31 c 0,-1.54 1.04,-2.88 2.52,-3.28 24.96,-6.62 43.2,-29.74 42.32,-56.98 -0.98,-30.21 -25.91,-54.65 -56.13,-55.08 -31.86,-0.45 -57.82,25.23 -57.82,56.99 0,26.42 17.98,48.62 42.36,55.08 1.48,0.39 2.51,1.74 2.51,3.28 v 53.31 c 0,1.54 -1.03,2.88 -2.51,3.28 -24.38,6.46 -42.36,28.67 -42.36,55.08 0,26.42 17.98,48.62 42.36,55.08 1.48,0.39 2.51,1.74 2.51,3.28 v 53.31 c 0,1.54 -1.03,2.88 -2.51,3.28 -24.38,6.46 -42.36,28.67 -42.36,55.08 0,26.42 17.98,48.62 42.36,55.08 1.48,0.39 2.51,1.74 2.51,3.28 v 53.31 c 0,1.54 -1.04,2.88 -2.52,3.28 -24.96,6.62 -43.2,29.74 -42.32,56.98 0.98,30.21 25.91,54.65 56.13,55.08 31.86,0.45 57.82,-25.23 57.82,-56.99 0,-26.42 -17.98,-48.62 -42.36,-55.08 -1.48,-0.39 -2.51,-1.74 -2.51,-3.28 v -53.31 c 0,-1.54 1.03,-2.88 2.51,-3.28 24.38,-6.46 42.36,-28.67 42.36,-55.08 0,-26.42 -17.98,-48.62 -42.36,-55.08 -1.48,-0.39 -2.51,-1.74 -2.51,-3.28 v -53.31 c 0,-1.54 1.03,-2.88 2.51,-3.28 24.38,-6.46 42.36,-28.66 42.36,-55.08 z m -94.66,0 c 0,-20.81 16.87,-37.67 37.67,-37.67 20.8,0 37.67,16.87 37.67,37.67 0,20.81 -16.87,37.67 -37.67,37.67 -20.8,0 -37.67,-16.86 -37.67,-37.67 z m 75.34,170.03 c 0,20.81 -16.87,37.67 -37.67,37.67 -20.8,0 -37.67,-16.87 -37.67,-37.67 0,-20.81 16.87,-37.67 37.67,-37.67 20.8,0 37.67,16.86 37.67,37.67 z M 93.2,394.48 v 53.31 c 0,1.54 1.04,2.88 2.52,3.28 24.96,6.62 43.2,29.74 42.32,56.98 -0.98,30.21 -25.91,54.65 -56.13,55.08 -31.86,0.45 -57.82,-25.23 -57.82,-56.99 0,-26.42 17.98,-48.62 42.36,-55.08 1.48,-0.39 2.51,-1.74 2.51,-3.28 v -53.31 c 0,-1.54 -1.04,-2.88 -2.52,-3.28 -24.96,-6.62 -43.2,-29.74 -42.32,-56.98 0.98,-30.21 25.91,-54.65 56.13,-55.08 31.86,-0.45 57.82,25.23 57.82,56.99 0,26.42 -17.98,48.62 -42.36,55.08 -1.48,0.4 -2.51,1.74 -2.51,3.28 z m 10.73,473.59 h 14.84 c 0.94,0 1.7,0.76 1.7,1.7 v 54.15 c 0,28.83 -17.69,43.59 -42.2,43.59 -23.4,0 -43.32,-14.21 -43.32,-43.59 v -54.15 c 0,-0.94 0.76,-1.7 1.7,-1.7 H 51.5 c 0.94,0 1.7,0.76 1.7,1.7 v 54.15 c 0,17.55 10.03,26.88 25.21,26.88 15.18,0 23.82,-10.17 23.82,-26.88 v -54.15 c 0,-0.94 0.76,-1.7 1.7,-1.7 z m 79.64,68.66 H 157.7 c -0.94,0 -1.7,0.76 -1.7,1.7 v 25.29 c 0,0.94 -0.76,1.7 -1.7,1.7 h -14.98 c -0.94,0 -1.7,-0.76 -1.7,-1.7 v -94.1 c 0,-0.94 0.76,-1.7 1.7,-1.7 14.76,-0.01 29.51,-0.14 44.27,-0.14 47.62,0.01 47.76,68.95 -0.02,68.95 z m 0,-51.39 H 157.7 c -0.94,0 -1.7,0.76 -1.7,1.7 v 31.14 c 0,0.94 0.76,1.7 1.7,1.7 h 25.88 c 23.53,0 23.39,-34.54 -0.01,-34.54 z m 123.55,65.04 c -24.1,0 -33.43,-16.85 -33.57,-33.01 -0.14,-16.3 10.03,-33.85 33.57,-33.85 8.01,0 16.14,2.6 22.42,8.15 0.65,0.58 1.65,0.53 2.28,-0.07 l 9.82,-9.49 c 0.71,-0.69 0.68,-1.82 -0.04,-2.49 -9.8,-9.06 -21.82,-13.64 -34.48,-13.64 -35.24,0 -51.81,25.91 -51.67,51.39 0.14,25.35 15.46,50.28 51.67,50.28 13.49,0 25.95,-4.23 35.79,-13.29 0.7,-0.64 0.71,-1.75 0.04,-2.43 l -10.17,-10.29 c -0.62,-0.62 -1.62,-0.67 -2.27,-0.08 -6.38,5.73 -15.38,8.82 -23.39,8.82 z m 86.63,-44.57 c -11.7,-1.39 -21.73,-3.76 -21.73,-12.26 0,-7.24 6.55,-12.95 20.2,-12.95 9.72,0 18.26,4.46 22.19,9.51 0.59,0.75 1.61,1.01 2.45,0.58 l 11.58,-5.95 c 0.87,-0.45 1.17,-1.52 0.7,-2.37 -7.69,-13.76 -22.84,-17.77 -37.47,-17.77 -17.97,0.14 -37.75,8.36 -37.75,28.41 0,21.87 18.39,27.16 38.3,29.53 12.95,1.39 22.56,5.15 22.56,14.35 0,10.58 -10.86,14.62 -22.42,14.62 -11.24,0 -21.98,-4.27 -26.73,-13.88 -0.42,-0.85 -1.46,-1.19 -2.3,-0.76 L 351,943.25 c -0.79,0.41 -1.15,1.37 -0.78,2.18 7.47,16.71 22.49,22.5 41.86,22.5 21.73,0 40.95,-9.33 40.95,-31.06 0,-23.26 -18.94,-28.55 -39.28,-31.06 z m 52.79,-36.18 v 94.1 c 0,0.94 0.76,1.7 1.7,1.7 h 14.84 c 0.94,0 1.7,-0.76 1.7,-1.7 v -94.1 c 0,-0.94 -0.76,-1.7 -1.7,-1.7 h -14.84 c -0.93,0 -1.7,0.76 -1.7,1.7 z"
   id="path7"
   style="opacity:0.075;fill:#ff0000;fill-opacity:1" />
</g>
</svg>
